<?xml version="1.0" encoding="UTF-8"?>
<svg xmlns="http://www.w3.org/2000/svg" xmlns:xlink="http://www.w3.org/1999/xlink" id="Warstwa_2" viewBox="0 0 199.99 199.99">
  <defs>
    <style>.cls-1{fill:rgba(255,255,255,.69);}.cls-2{fill:rgba(243,97,92,.69);}.cls-2,.cls-3,.cls-4,.cls-5,.cls-6,.cls-7,.cls-8,.cls-9{stroke:#000;}.cls-2,.cls-3,.cls-4,.cls-6,.cls-7,.cls-8,.cls-9{stroke-linecap:round;stroke-linejoin:round;}.cls-2,.cls-9{stroke-width:1.93px;}.cls-10{fill:rgba(255,255,255,.48);}.cls-3{stroke-width:.97px;}.cls-3,.cls-6,.cls-8{fill:#fff;}.cls-4,.cls-5{stroke-width:.48px;}.cls-4,.cls-5,.cls-7,.cls-11{fill:none;}.cls-5{stroke-miterlimit:2.42;}.cls-6{stroke-width:.72px;}.cls-7{stroke-width:1.93px;}.cls-12{clip-path:url(#clippath);}.cls-8{stroke-width:1.16px;}.cls-9{fill:rgba(38,125,202,.69);}.cls-13{fill:rgba(255,207,0,.48);}</style>
    <clipPath id="clippath">
      <rect class="cls-11" x="65.09" y="96.41" width="69.48" height="77.88"></rect>
    </clipPath>
  </defs>
  <g id="svg211">
    <g id="Warstwa_2-2">
      <rect class="cls-11" width="199.99" height="199.99"></rect>
    </g>
    <g>
      <path id="path66" class="cls-1" d="m97.6,92.58c-.93,1.65-30.8,19.21-32.7,19.23-1.9.01-32.04-17.07-33-18.7-.96-1.64-1.24-36.28-.31-37.93.93-1.65,30.8-19.22,32.7-19.23,1.9-.01,32.04,17.07,33,18.7.96,1.64,1.24,36.28.3,37.93Z"></path>
      <path id="path66-2" class="cls-1" d="m97.6,92.58c-.93,1.65-30.8,19.21-32.7,19.23-1.9.01-32.04-17.07-33-18.7-.96-1.64-1.24-36.28-.31-37.93.93-1.65,30.8-19.22,32.7-19.23,1.9-.01,32.04,17.07,33,18.7.96,1.64,1.24,36.28.3,37.93Z"></path>
      <path id="path66-3" class="cls-1" d="m97.6,92.58c-.93,1.65-30.8,19.21-32.7,19.23-1.9.01-32.04-17.07-33-18.7-.96-1.64-1.24-36.28-.31-37.93.93-1.65,30.8-19.22,32.7-19.23,1.9-.01,32.04,17.07,33,18.7.96,1.64,1.24,36.28.3,37.93Z"></path>
      <path id="path66-4" class="cls-9" d="m97.6,92.58c-.93,1.65-30.8,19.21-32.7,19.23-1.9.01-32.04-17.07-33-18.7-.96-1.64-1.24-36.28-.31-37.93.93-1.65,30.8-19.22,32.7-19.23,1.9-.01,32.04,17.07,33,18.7.96,1.64,1.24,36.28.3,37.93Z"></path>
      <path id="path68" class="cls-3" d="m77.3,76.98c0,7.1-6.02,12.86-13.46,12.86s-13.46-5.76-13.46-12.86,6.94-10.1,13-24.8c8.8,16.7,13.91,18.47,13.91,24.8Z"></path>
      <path id="path70" class="cls-6" d="m81.9,89.06c0,4.04-3.71,7.33-8.29,7.33s-8.29-3.28-8.29-7.33,4.27-5.76,8-14.13c5.42,9.51,8.57,10.52,8.57,14.13Z"></path>
      <path id="path72" class="cls-1" d="m168.39,92.58c-.94,1.65-30.8,19.21-32.7,19.23-1.9.01-32.04-17.07-33-18.7-.96-1.64-1.24-36.28-.3-37.93.93-1.65,30.8-19.22,32.7-19.23,1.9-.01,32.04,17.07,33,18.7s1.24,36.28.31,37.93Z"></path>
      <path id="path72-2" class="cls-1" d="m168.39,92.58c-.94,1.65-30.8,19.21-32.7,19.23-1.9.01-32.04-17.07-33-18.7-.96-1.64-1.24-36.28-.3-37.93.93-1.65,30.8-19.22,32.7-19.23,1.9-.01,32.04,17.07,33,18.7s1.24,36.28.31,37.93Z"></path>
      <path id="path72-3" class="cls-1" d="m168.39,92.58c-.94,1.65-30.8,19.21-32.7,19.23-1.9.01-32.04-17.07-33-18.7-.96-1.64-1.24-36.28-.3-37.93.93-1.65,30.8-19.22,32.7-19.23,1.9-.01,32.04,17.07,33,18.7s1.24,36.28.31,37.93Z"></path>
      <path id="path72-4" class="cls-2" d="m168.39,92.58c-.94,1.65-30.8,19.21-32.7,19.23-1.9.01-32.04-17.07-33-18.7-.96-1.64-1.24-36.28-.3-37.93.93-1.65,30.8-19.22,32.7-19.23,1.9-.01,32.04,17.07,33,18.7s1.24,36.28.31,37.93Z"></path>
      <path id="path74" class="cls-10" d="m132.76,154.09c-.94,1.65-30.8,19.22-32.7,19.23-1.9.02-32.04-17.06-33-18.7-.96-1.64-1.24-36.28-.3-37.93.93-1.65,30.8-19.21,32.7-19.23,1.9-.01,32.04,17.07,33,18.7s1.24,36.28.31,37.93Z"></path>
      <path id="path74-2" class="cls-10" d="m132.76,154.09c-.94,1.65-30.8,19.22-32.7,19.23-1.9.02-32.04-17.06-33-18.7-.96-1.64-1.24-36.28-.3-37.93.93-1.65,30.8-19.21,32.7-19.23,1.9-.01,32.04,17.07,33,18.7s1.24,36.28.31,37.93Z"></path>
      <path id="path74-3" class="cls-10" d="m132.76,154.09c-.94,1.65-30.8,19.22-32.7,19.23-1.9.02-32.04-17.06-33-18.7-.96-1.64-1.24-36.28-.3-37.93.93-1.65,30.8-19.21,32.7-19.23,1.9-.01,32.04,17.07,33,18.7s1.24,36.28.31,37.93Z"></path>
      <path id="path74-4" class="cls-13" d="m132.76,154.09c-.94,1.65-30.8,19.22-32.7,19.23-1.9.02-32.04-17.06-33-18.7-.96-1.64-1.24-36.28-.3-37.93.93-1.65,30.8-19.21,32.7-19.23,1.9-.01,32.04,17.07,33,18.7s1.24,36.28.31,37.93Z"></path>
      <g class="cls-12">
        <g id="g78">
          <path id="path76" class="cls-7" d="m132.76,154.09c-.94,1.65-30.8,19.22-32.7,19.23-1.9.02-32.04-17.06-33-18.7-.96-1.64-1.24-36.28-.3-37.93.93-1.65,30.8-19.21,32.7-19.23,1.9-.01,32.04,17.07,33,18.7.96,1.64,1.24,36.28.31,37.93Z"></path>
        </g>
      </g>
      <path id="path80" class="cls-3" d="m119.87,137.94c-4.76,2.86-14.63,2.21-19.08,2.32-7.72.2-17.24-.5-22.77-2.82.08-2.34.67-5.43,4.17-7,2.44-1.09,6,.68,6,.68,0,0-1.5-2.89.37-6.01,1.93-3.2,5.29-2.79,5.29-2.79,4.12.52,4.51,3.5,4.51,3.5,0,0-.82-3.37,1.68-6.56,2.5-3.2,5.51-3.54,7.95-3.32,4.53.42,8.01,6.99,5.6,11.74,2.65-1.52,5.85-1.01,7.98,1.41s1.76,6.06-1.7,8.85Z"></path>
      <path id="path82" class="cls-5" d="m84,152.19c14.18-4.8,25.94.8,30.27.65,6.27-.21,5.94-5.79,2.81-6.67"></path>
      <path id="path84" class="cls-6" d="m117.94,141.86c-2.62,1.44-8.05,1.11-10.51,1.17-4.25.1-9.5-.25-12.54-1.42.04-1.18.37-2.74,2.3-3.52,1.35-.55,3.3.34,3.3.34,0,0-.83-1.45.21-3.03,1.06-1.61,2.91-1.41,2.91-1.41,2.27.26,2.49,1.76,2.49,1.76,0,0-.45-1.69.93-3.3,1.38-1.61,3.03-1.79,4.38-1.67,2.49.21,4.41,3.52,3.08,5.91,1.46-.76,3.22-.51,4.4.71,1.17,1.22.97,3.05-.94,4.46Z"></path>
      <path id="path86" class="cls-5" d="m91.31,153.61c8.85-2.67,17.4,1.51,21.74,1.36"></path>
      <path id="path88" class="cls-5" d="m88.01,148.53c8.85-2.67,17.4,1.51,21.74,1.36"></path>
      <path id="path90" class="cls-3" d="m141.57,75.3c0,3.71-3,6.71-6.71,6.71s-6.71-3.01-6.71-6.71,3-6.71,6.71-6.71,6.71,3,6.71,6.71Z"></path>
      <path id="path92" class="cls-4" d="m144.99,75.3c0,15.61-4.54,28.27-10.13,28.27s-10.13-12.66-10.13-28.27,4.54-28.27,10.13-28.27,10.13,12.66,10.13,28.27Z"></path>
      <path id="path94" class="cls-4" d="m140.19,66.68c13.27,8.22,21.65,18.74,18.7,23.5s-16.09,1.95-29.37-6.27c-13.27-8.22-21.65-18.74-18.7-23.5,2.95-4.76,16.09-1.95,29.37,6.27Z"></path>
      <path id="path96" class="cls-4" d="m129.52,66.68c-13.27,8.22-21.65,18.74-18.7,23.5s16.09,1.95,29.37-6.27c13.27-8.22,21.65-18.74,18.7-23.5s-16.09-1.95-29.37,6.27Z"></path>
      <path id="path98" class="cls-3" d="m143.61,51.83c0,1.69-1.37,3.06-3.06,3.06s-3.06-1.37-3.06-3.06,1.37-3.06,3.06-3.06,3.06,1.37,3.06,3.06Z"></path>
      <path id="path100" class="cls-3" d="m115.87,81.34c0,1.69-1.37,3.06-3.06,3.06s-3.06-1.37-3.06-3.06,1.37-3.06,3.06-3.06,3.06,1.37,3.06,3.06Z"></path>
      <path id="path102" class="cls-3" d="m145.74,91.4c0,1.69-1.37,3.06-3.06,3.06s-3.06-1.37-3.06-3.06,1.37-3.06,3.06-3.06,3.06,1.37,3.06,3.06Z"></path>
      <path id="path104" class="cls-8" d="m85.64,36.71l17.38-11.01,7.86,7.66,2.97-2.38,2.11,10.57-10.05-3.62,2.23-1.72-4.9-5.1-14.48,10.03-3.12-4.44Z"></path>
      <path id="path106" class="cls-8" d="m56.76,136.83l-17.61-10.63,3.35-10.45-3.45-1.6,8.51-6.61,1.26,10.61-2.53-1.22-2.37,6.66,15.44,8.47-2.58,4.77Z"></path>
    </g>
  </g>
</svg>
